#!OML:ASF F:\VICON\USERDATA\INSTALL\rory3\rory3.ASF
:FULLY-SPECIFIED
:DEGREES
1084
root -13.5148 17.7741 16.9567 186.14 -55.3828 178.747
lowerback 13.4234 -3.9265 -4.43216
upperback 1.75571 -5.8398 2.52218
thorax -4.93214 -2.84076 6.15872
lowerneck -7.16175 -3.91395 -14.3352
upperneck 39.8052 -10.9932 8.39186
head 16.9258 -7.03824 4.15079
rclavicle 5.29761e-014 2.78299e-015
rhumerus -38.4935 -12.1155 -80.8564
rradius 40.1491
rwrist 2.35071
rhand -15.071 8.53339
rfingers 7.12502
rthumb 11.0962 -21.1533
lclavicle 5.29761e-014 2.78299e-015
lhumerus -27.8497 3.03557 84.1355
lradius 42.3638
lwrist -2.31788
lhand -17.3586 26.5328
lfingers 7.12502
lthumb 8.88928 56.3256
rfemur -16.5167 16.595 12.6299
rtibia 29.9975
rfoot -18.8036 21.4325
rtoes 14.5113
lfemur -13.0521 -15.1211 -10.6926
ltibia 17.703
lfoot -3.54767 -29.9524
ltoes 20.8552
1085
root -13.4654 17.7843 16.9046 186.028 -56.2833 178.888
lowerback 13.4738 -3.77326 -4.03791
upperback 1.85132 -5.58469 2.51326
thorax -4.93107 -2.7256 5.88862
lowerneck -7.13165 -4.0766 -14.1402
upperneck 39.6931 -11.1985 8.41425
head 16.8814 -7.06081 4.09452
rclavicle -1.06698e-013 -9.74045e-015
rhumerus -38.5635 -12.2761 -80.9654
rradius 39.628
rwrist 2.16592
rhand -15.5704 9.13573
rfingers 7.12502
rthumb 10.6146 -20.5762
lclavicle -1.06698e-013 -9.74045e-015
lhumerus -27.4839 2.63991 84.3357
lradius 42.8206
lwrist -2.37732
lhand -17.4325 26.1291
lfingers 7.12502
lthumb 8.81799 55.9248
rfemur -16.3682 15.7758 13.1108
rtibia 29.9047
rfoot -18.3887 20.3068
rtoes 13.7446
lfemur -13.2822 -15.3039 -10.3378
ltibia 17.6377
lfoot -3.60851 -29.8263
ltoes 19.3293
1086
root -13.4207 17.7985 16.8472 185.756 -57.0832 179.243
lowerback 13.3896 -3.60527 -3.6225
upperback 1.9589 -5.30079 2.57885
thorax -4.83793 -2.60038 5.66728
lowerneck -7.09874 -4.17644 -14.1215
upperneck 39.5831 -11.3036 8.52804
head 16.8418 -7.06063 4.12981
rclavicle -8.75646e-014 -2.36554e-014
rhumerus -38.5423 -12.1272 -81.1164
rradius 39.1426
rwrist 1.65357
rhand -15.8565 9.01302
rfingers 7.12502
rthumb 10.3386 -20.7128
lclavicle -8.75646e-014 -2.36554e-014
lhumerus -27.2105 2.20581 84.6545
lradius 43.3769
lwrist -2.41228
lhand -17.9776 26.2809
lfingers 7.12502
lthumb 8.29194 56.0982
rfemur -16.1992 15.1077 13.7013
rtibia 29.7845
rfoot -17.9842 19.7951
rtoes 13.8796
lfemur -13.479 -15.5251 -9.89171
ltibia 17.6256
lfoot -4.18917 -29.4839
ltoes 17.237
1087
root -13.3798 17.8096 16.7837 185.59 -57.8435 179.447
lowerback 13.2383 -3.46968 -3.41175
upperback 2.08849 -5.08762 2.71204
thorax -4.64906 -2.51069 5.63649
lowerneck -7.09392 -4.23901 -14.1601
upperneck 39.4221 -11.2402 8.49073
head 16.7423 -7.00939 4.13464
rclavicle 3.45885e-014 2.22639e-014
rhumerus -38.4018 -11.7811 -81.187
rradius 38.6837
rwrist 1.33029
rhand -16.0828 8.73767
rfingers 7.12502
rthumb 10.1203 -20.9989
lclavicle 3.45885e-014 2.22639e-014
lhumerus -26.9952 2.09574 85.0634
lradius 43.9711
lwrist -2.42377
lhand -17.1743 25.6684
lfingers 7.12502
lthumb 9.06717 55.4535
rfemur -15.9638 14.4487 14.2041
rtibia 29.6285
rfoot -17.6609 19.6031
rtoes 14.614
lfemur -13.5794 -15.7644 -9.57964
ltibia 17.5624
lfoot -5.19574 -28.782
ltoes 14.1822
1088
root -13.3435 17.8197 16.7138 185.831 -58.6806 179.188
lowerback 12.9681 -3.3456 -3.5426
upperback 2.22801 -4.93467 2.8453
thorax -4.34808 -2.44924 5.79726
lowerneck -7.03906 -4.29472 -14.2789
upperneck 39.2162 -11.1129 8.38494
head 16.5963 -6.94924 4.13458
rclavicle -1.43821e-013 1.90833e-014
rhumerus -38.1749 -11.2353 -81.2064
rradius 38.0893
rwrist 1.24539
rhand -16.4154 9.11425
rfingers 7.12502
rthumb 9.79941 -20.6377
lclavicle -1.43821e-013 1.90833e-014
lhumerus -26.8366 2.21432 85.5287
lradius 44.5555
lwrist -2.26283
lhand -14.9725 23.9884
lfingers 7.12502
lthumb 11.1913 53.6699
rfemur -15.6762 13.7324 14.442
rtibia 29.4385
rfoot -17.4314 19.5058
rtoes 15.6681
lfemur -13.6278 -15.8354 -9.57158
ltibia 17.4166
lfoot -5.68732 -27.9841
ltoes 12.0958
1089
root -13.3078 17.8332 16.6461 186.198 -59.5606 178.767
lowerback 12.8566 -3.19915 -3.59062
upperback 2.23003 -4.74177 2.82098
thorax -4.3063 -2.35324 5.76079
lowerneck -6.76732 -4.31897 -14.1989
upperneck 39.0756 -11.1024 8.34902
head 16.4424 -6.92344 4.11689
rclavicle -9.44227e-015 -4.69132e-014
rhumerus -38.1889 -11.0068 -81.251
rradius 37.4628
rwrist 1.42937
rhand -16.517 9.43729
rfingers 7.12502
rthumb 9.70133 -20.3193
lclavicle -9.44227e-015 -4.69132e-014
lhumerus -26.9867 1.82457 85.8679
lradius 45.2165
lwrist -2.03414
lhand -12.3744 22.1737
lfingers 7.12502
lthumb 13.6962 51.703
rfemur -15.3378 13.0983 14.5939
rtibia 29.228
rfoot -17.3641 19.1878
rtoes 15.8825
lfemur -13.6199 -15.8186 -9.70579
ltibia 17.2183
lfoot -6.3035 -26.9769
ltoes 9.56794
1090
root -13.2689 17.8485 16.5867 186.506 -60.4296 178.458
lowerback 13.0143 -3.06661 -3.39269
upperback 2.02794 -4.53416 2.72763
thorax -4.65464 -2.23199 5.54286
lowerneck -6.40709 -4.2674 -14.1015
upperneck 39.1267 -11.1118 8.39052
head 16.3785 -6.92105 4.13203
rclavicle -3.32964e-014 -2.5842e-014
rhumerus -38.5193 -10.9314 -81.1676
rradius 36.9703
rwrist 1.92309
rhand -15.8495 9.22531
rfingers 7.12502
rthumb 10.3453 -20.5002
lclavicle -3.32964e-014 -2.5842e-014
lhumerus -27.4314 1.39324 86.1148
lradius 45.9001
lwrist -2.0243
lhand -7.9443 19.8778
lfingers 7.12502
lthumb 17.9624 49.0683
rfemur -15.0646 12.5433 14.7711
rtibia 29.005
rfoot -17.4822 18.5557
rtoes 14.6418
lfemur -13.6669 -15.9293 -9.79646
ltibia 17.0511
lfoot -7.30843 -25.4162
ltoes 5.84212
